<svg width="253" height="56" viewBox="0 0 253 56" fill="none" xmlns="http://www.w3.org/2000/svg">
<path fill-rule="evenodd" clip-rule="evenodd" d="M37.8012 17.2904C34.9878 15.0754 31.5128 13.868 27.9321 13.8616C26.1221 13.8298 24.3242 14.162 22.645 14.8384C20.9658 15.5148 19.4395 16.5217 18.1569 17.7992C16.8743 19.0767 15.8614 20.5989 15.1783 22.2754C14.4952 23.9519 14.1561 25.7485 14.1806 27.5587C14.146 30.094 14.7712 32.5947 15.9948 34.8154C17.1418 36.8631 18.8467 38.5429 20.9112 39.6593C23.1301 40.8877 25.6321 41.5132 28.168 41.4735C30.3015 41.5011 32.4164 41.0744 34.3723 40.2217C35.7584 39.5492 37.0563 38.7083 38.2366 37.7181L48.6863 47.3152C46.0674 49.7339 43.0786 51.7183 39.8331 53.1931C36.0896 54.7091 32.0791 55.4557 28.0408 55.3883C24.3275 55.512 20.6276 54.883 17.1637 53.5392C13.6998 52.1955 10.5437 50.1647 7.88525 47.5691C5.28911 44.9499 3.25251 41.8303 1.89901 38.3997C0.54551 34.9692 -0.0965697 31.2994 0.0117395 27.6131C-0.059276 22.6861 1.1938 17.8305 3.64011 13.5531C6.11077 9.38409 9.65753 5.95646 13.9085 3.62953C18.2872 1.20637 23.2181 -0.0435327 28.2224 0.00115769C35.1866 0.0121213 41.9385 2.39932 47.362 6.76808L37.8012 17.2904ZM253 30.1892V34.1079H248.682C247.707 34.1988 246.732 33.9276 245.943 33.3459C245.646 33.0686 245.427 32.7183 245.308 32.33C243.752 33.8177 241.673 34.6325 239.521 34.5977C238.135 34.6446 236.757 34.3672 235.497 33.7877C234.237 33.2081 233.13 32.3425 232.264 31.2596C230.713 29.2828 229.91 26.8222 229.996 24.3113C229.99 22.7531 230.279 21.2079 230.849 19.7577C231.361 18.3777 232.187 17.1356 233.262 16.1293C234.144 15.2834 235.185 14.6203 236.324 14.1781C237.464 13.736 238.68 13.5236 239.902 13.5531C241.366 13.5291 242.809 13.9055 244.074 14.6416C244.413 14.8586 244.734 15.1012 245.036 15.3673V14.2062H250.478V29.1007C250.463 29.2574 250.487 29.4155 250.547 29.561C250.607 29.7065 250.702 29.835 250.823 29.9352C251.193 30.1209 251.607 30.2024 252.02 30.1711L253 30.1892ZM245.036 19.9028C244.529 19.3071 243.893 18.8344 243.176 18.5202C242.46 18.2059 241.681 18.0583 240.9 18.0886C240.141 18.0689 239.391 18.2396 238.715 18.585C238.04 18.9305 237.463 19.4397 237.035 20.0661C236.188 21.2634 235.743 22.6993 235.765 24.1661C235.737 25.0065 235.884 25.8435 236.197 26.6242C236.509 27.4048 236.98 28.1122 237.579 28.7016C238.021 29.1781 238.557 29.5567 239.154 29.8129C239.751 30.0692 240.395 30.1974 241.045 30.1892C241.834 30.195 242.614 30.0139 243.32 29.6607C244.027 29.3076 244.639 28.7925 245.108 28.1573L245.036 19.9028ZM84.5528 29.1007C82.4306 29.1284 80.3743 28.3653 78.7838 26.96C77.7979 26.0983 77.0378 25.0083 76.5703 23.7851C76.0405 22.4775 75.7755 21.0778 75.7904 19.667C75.702 17.3148 76.4761 15.0115 77.9673 13.1903C78.7327 12.2784 79.6957 11.5529 80.7834 11.0688C81.871 10.5848 83.0548 10.3548 84.2445 10.3965C86.7564 10.4958 89.1364 11.5464 90.9025 13.3354L94.694 9.48936C93.5716 8.33446 92.2811 7.35585 90.8661 6.58666C88.7354 5.5128 86.3763 4.97123 83.9905 5.00832C80.5914 4.90082 77.2782 6.08737 74.72 8.32828C73.1451 9.72095 71.9048 11.4511 71.0917 13.3899C70.2377 15.4104 69.7995 17.5822 69.8035 19.7758C69.8043 21.718 70.1419 23.6455 70.8013 25.4723C71.4271 27.2201 72.3884 28.8286 73.6314 30.2074C74.9152 31.621 76.4937 32.7355 78.2554 33.4722C80.0172 34.2088 81.9192 34.5497 83.8271 34.4707C86.0807 34.4943 88.3116 34.0172 90.3583 33.0738C91.8267 32.3117 93.172 31.3332 94.3494 30.1711L90.83 26.1617C90.0676 27.087 89.1086 27.8308 88.0228 28.3391C86.9371 28.8475 85.7517 29.1077 84.5528 29.1007ZM113.417 17.0364C115.146 18.9753 116.079 21.496 116.029 24.0936C116.073 25.566 115.786 27.0296 115.19 28.3765C114.593 29.7234 113.702 30.9194 112.582 31.8764C110.591 33.6628 108 34.6343 105.325 34.5977C103.673 34.619 102.037 34.272 100.536 33.5818C99.1138 32.915 97.8702 31.9201 96.9075 30.6791C95.441 28.7694 94.6841 26.4092 94.7667 24.0029C94.7049 22.498 94.9863 20.9989 95.5898 19.619C96.1933 18.2392 97.1031 17.0147 98.25 16.0386C100.318 14.321 102.948 13.4292 105.634 13.535C107.107 13.5217 108.566 13.8277 109.909 14.4322C111.253 15.0367 112.449 15.9251 113.417 17.0364ZM110.55 23.9484C110.594 23.1968 110.481 22.4443 110.218 21.7386C109.956 21.0328 109.55 20.3892 109.026 19.8484C108.527 19.3541 107.93 18.9684 107.275 18.7155C106.619 18.4626 105.918 18.348 105.216 18.3789C104.477 18.3674 103.744 18.5248 103.074 18.8392C102.405 19.1536 101.816 19.6166 101.352 20.1931C100.424 21.3095 99.9514 22.7346 100.028 24.1843C99.9855 24.9483 100.101 25.7129 100.366 26.4307C100.631 27.1484 101.041 27.8041 101.57 28.3569C102.536 29.3117 103.84 29.8463 105.198 29.8445C105.973 29.8787 106.744 29.7327 107.453 29.4179C108.161 29.103 108.787 28.6281 109.28 28.0304C110.19 26.8716 110.642 25.4188 110.55 23.9484ZM133.536 15.3855C132.889 14.7713 132.126 14.294 131.29 13.9822C130.455 13.6705 129.565 13.5307 128.674 13.5713C127.475 13.543 126.294 13.8713 125.281 14.5147C124.544 15.1114 123.928 15.8443 123.467 16.6735V14.2244H118.025V33.9809H123.467V22.0254C123.429 21.1536 123.677 20.2933 124.175 19.5762C124.478 19.1328 124.888 18.7726 125.366 18.5285C125.845 18.2845 126.377 18.1644 126.914 18.1793C127.421 18.1476 127.927 18.252 128.38 18.4816C128.833 18.7113 129.216 19.0579 129.49 19.4855C129.851 20.1976 130.014 20.9932 129.962 21.7895V33.9809H135.405V21.463C135.425 20.3132 135.327 19.1643 135.114 18.0342C134.887 17.0044 134.333 16.0754 133.536 15.3855ZM150.009 23.6037C148.306 22.6205 146.474 21.8816 144.566 21.4086C143.042 20.955 142.28 20.2293 142.28 19.286C142.28 19.0457 142.333 18.8084 142.436 18.5916C142.54 18.3749 142.691 18.1843 142.879 18.0342C143.324 17.6901 143.877 17.5163 144.439 17.5444C144.833 17.5157 145.229 17.5795 145.594 17.7307C145.96 17.8818 146.285 18.1162 146.544 18.4152C146.802 18.7271 146.949 19.1167 146.961 19.5218C146.969 19.6487 146.969 19.7759 146.961 19.9028H151.95C151.966 18.6078 151.58 17.3397 150.843 16.2744C150.107 15.3417 149.153 14.6041 148.064 14.1265C146.976 13.6488 145.787 13.4457 144.602 13.535C142.832 13.4823 141.085 13.949 139.577 14.8775C138.748 15.3982 138.071 16.1289 137.616 16.9955C137.16 17.8621 136.942 18.8339 136.983 19.8121C136.962 20.536 137.092 21.2563 137.364 21.9276C137.635 22.5989 138.043 23.2067 138.561 23.7126C139.869 24.8723 141.437 25.6999 143.133 26.1255C144.046 26.3522 144.929 26.6872 145.763 27.1233C146.069 27.2689 146.329 27.4974 146.511 27.7828C146.694 28.0682 146.793 28.399 146.798 28.7379C146.795 29.0013 146.736 29.2612 146.623 29.4993C146.51 29.7374 146.347 29.9481 146.145 30.1167C145.715 30.4628 145.172 30.6373 144.62 30.6065C143.151 30.6065 142.28 29.7901 142.044 28.1392H136.856C136.883 29.5144 137.34 30.8466 138.162 31.949C138.949 32.8694 139.943 33.5895 141.063 34.0501C142.183 34.5106 143.396 34.6983 144.602 34.5977C146.442 34.6758 148.259 34.1676 149.791 33.1464C150.579 32.5931 151.218 31.8523 151.648 30.9909C152.079 30.1294 152.289 29.1744 152.258 28.2118C152.291 27.318 152.103 26.4299 151.71 25.6262C151.318 24.8225 150.734 24.1278 150.009 23.6037ZM174.482 14.5328C173.634 15.1987 173.002 16.1017 172.668 17.1271V14.2244H167.225V33.9809H172.668V24.4745C172.664 23.8681 172.7 23.262 172.777 22.6604C172.907 21.633 173.417 20.6914 174.206 20.0202C174.994 19.349 176.005 18.9966 177.04 19.032H178.219V13.5894H177.53C176.444 13.5666 175.379 13.8837 174.482 14.4965V14.5328ZM191.971 26.7241C192.007 27.4613 191.81 28.1912 191.408 28.8105C191.115 29.2192 190.724 29.548 190.271 29.7666C189.817 29.9853 189.317 30.0869 188.814 30.0622C188.283 30.1039 187.751 29.9949 187.28 29.7478C186.808 29.5007 186.415 29.1255 186.147 28.6653C185.744 27.965 185.538 27.1691 185.549 26.3613V14.2244H180.106V26.7241C180.022 27.7789 180.165 28.8394 180.525 29.8344C180.885 30.8294 181.453 31.736 182.192 32.4933C184.031 34.013 186.379 34.7782 188.76 34.634C190.223 34.6586 191.677 34.3999 193.041 33.872C194.412 33.3671 195.588 32.4396 196.397 31.2233C197.14 29.8455 197.48 28.2861 197.377 26.7241V14.2244H191.935L191.971 26.7241ZM226.567 15.4399C225.949 14.8178 225.206 14.3344 224.386 14.0216C223.567 13.7088 222.69 13.5739 221.814 13.6257C220.477 13.6008 219.158 13.9461 218.004 14.6235C217.132 15.2083 216.411 15.9917 215.9 16.9094C215.535 15.9847 214.903 15.1892 214.086 14.6235C213.001 13.9401 211.739 13.593 210.457 13.6257C209.168 13.5944 207.901 13.9618 206.829 14.6779C206.065 15.2392 205.443 15.9726 205.015 16.8187V14.2244H199.572V33.9809H205.015V22.2612C204.938 21.1876 205.212 20.1181 205.795 19.2134C206.072 18.8685 206.427 18.5948 206.831 18.4149C207.234 18.235 207.676 18.1543 208.117 18.1793C210.113 18.1793 211.11 19.54 211.11 22.2612V33.9809H216.553V22.1161C216.5 21.1461 216.747 20.1834 217.261 19.3585C217.522 18.9702 217.881 18.6571 218.301 18.4503C218.721 18.2434 219.188 18.15 219.655 18.1793C220.08 18.1438 220.507 18.2129 220.9 18.3805C221.292 18.5481 221.637 18.8091 221.905 19.1408C222.454 20.0315 222.708 21.0727 222.631 22.1161V33.9809H228.073V21.1002C228.083 20.0987 228.016 19.0981 227.874 18.1067C227.717 17.0957 227.262 16.1544 226.567 15.4036V15.4399ZM161.257 8.8544L155.814 10.2876V14.17H153.093V18.7236H155.814V30.1892C155.725 31.221 156.022 32.2492 156.649 33.0738C157.02 33.4011 157.455 33.6488 157.926 33.8017C158.398 33.9546 158.895 34.0094 159.388 33.9627H165.266V29.4273H164.341C163.42 29.4415 162.501 29.3502 161.601 29.1551C161.473 29.0242 161.375 28.8674 161.312 28.6954C161.25 28.5233 161.225 28.3399 161.239 28.1573V18.7236H165.266V14.1337H161.239L161.257 8.8544Z" fill="white"/>
<path fill-rule="evenodd" clip-rule="evenodd" d="M56.4511 27.7038C56.5197 32.6247 55.2667 37.4739 52.8227 41.7456C52.3691 42.5076 51.8794 43.2332 51.3715 43.9408L40.7401 33.9809L34.0277 27.7219L40.5224 20.6648C40.5224 20.6648 40.5224 20.6648 40.5224 20.574L50.5005 9.81592C54.5238 14.8943 56.6306 21.2273 56.4511 27.7038ZM89.6871 48.6214C89.6777 49.1484 89.7449 49.6739 89.8866 50.1816C90.0481 50.6895 90.3754 51.1284 90.8163 51.4278C91.2572 51.7272 91.7859 51.8697 92.3176 51.8325C92.7238 51.8468 93.1273 51.7598 93.4915 51.5792C93.8558 51.3987 94.1693 51.1304 94.4039 50.7984C94.4039 50.7984 94.4039 50.6895 94.4039 50.617L93.8414 50.1634C93.8296 50.1514 93.8156 50.1418 93.8 50.1352C93.7844 50.1287 93.7677 50.1253 93.7509 50.1253C93.734 50.1253 93.717 50.1287 93.7015 50.1352C93.6859 50.1418 93.6719 50.1514 93.6601 50.1634C93.5203 50.3801 93.3262 50.5561 93.0969 50.6739C92.8676 50.7918 92.6114 50.8472 92.3539 50.8347C92.049 50.8553 91.746 50.7713 91.4953 50.5964C91.2446 50.4216 91.0611 50.1664 90.9751 49.8732C90.7805 49.05 90.7805 48.1928 90.9751 47.3696C91.0611 47.0763 91.2446 46.8212 91.4953 46.6463C91.746 46.4715 92.049 46.3874 92.3539 46.4081C92.6114 46.3956 92.8676 46.451 93.0969 46.5688C93.3262 46.6866 93.5203 46.8627 93.6601 47.0793C93.67 47.0943 93.6834 47.1066 93.6993 47.1151C93.7151 47.1236 93.7329 47.128 93.7509 47.128C93.7688 47.128 93.7864 47.1236 93.8022 47.1151C93.8181 47.1066 93.8315 47.0943 93.8414 47.0793L94.4039 46.6076C94.4039 46.6076 94.4039 46.4988 94.4039 46.4262C94.1693 46.0942 93.8558 45.8259 93.4915 45.6454C93.1273 45.4648 92.7238 45.3778 92.3176 45.3921C91.7865 45.3581 91.2592 45.5019 90.819 45.8009C90.3788 46.0998 90.0508 46.5369 89.8866 47.043C89.7432 47.5565 89.6759 48.0883 89.6871 48.6214ZM100.463 51.6874C100.554 51.6874 100.608 51.6874 100.608 51.5604V45.6824C100.608 45.6641 100.605 45.6459 100.597 45.6292C100.59 45.6125 100.579 45.5976 100.565 45.5855C100.551 45.5734 100.535 45.5645 100.518 45.5593C100.5 45.5541 100.481 45.5528 100.463 45.5554H99.647C99.6133 45.5554 99.5809 45.5688 99.5571 45.5926C99.5332 45.6164 99.5198 45.6487 99.5198 45.6824V49.3108C99.5436 49.5034 99.5253 49.6988 99.4663 49.8837C99.4072 50.0685 99.3085 50.2383 99.1775 50.3815C99.0464 50.5246 98.886 50.6376 98.7071 50.7127C98.5282 50.7878 98.335 50.8232 98.141 50.8165C97.234 50.8165 96.7804 50.236 96.7804 49.2382V45.6098C96.7804 45.5761 96.767 45.5438 96.7432 45.52C96.7194 45.4962 96.6872 45.4828 96.6535 45.4828H95.837C95.8196 45.4796 95.8018 45.4806 95.785 45.4859C95.7681 45.4911 95.7527 45.5004 95.7402 45.5129C95.7277 45.5254 95.7184 45.5407 95.7132 45.5576C95.708 45.5745 95.7068 45.5924 95.7101 45.6098V49.4378C95.6732 49.7345 95.701 50.0358 95.7918 50.3207C95.8826 50.6057 96.0341 50.8676 96.2358 51.0883C96.4376 51.309 96.685 51.4834 96.9607 51.5993C97.2363 51.7153 97.5339 51.7701 97.8328 51.7599C98.1622 51.7832 98.4918 51.7161 98.7859 51.5658C99.0801 51.4156 99.3275 51.1878 99.5017 50.9073V51.4878C99.4984 51.5052 99.4995 51.5231 99.5048 51.54C99.51 51.5569 99.5193 51.5722 99.5318 51.5847C99.5443 51.5973 99.5596 51.6065 99.5765 51.6118C99.5934 51.617 99.6114 51.618 99.6288 51.6148L100.463 51.6874ZM104.491 51.8325C106.087 51.8325 106.958 51.0342 106.958 49.8187C106.958 48.6032 106.359 48.2041 105.144 48.0046H104.491C103.584 48.0046 103.293 47.6598 103.293 47.17C103.293 46.6802 103.692 46.3355 104.454 46.3355C105.039 46.3436 105.611 46.5131 106.105 46.8253C106.105 46.8253 106.25 46.8253 106.287 46.8253L106.722 46.2811C106.722 46.2811 106.722 46.1359 106.722 46.0997C106.09 45.6415 105.326 45.3998 104.545 45.4103C103.094 45.4103 102.259 46.1178 102.259 47.2245C102.259 48.3311 102.894 48.8391 104.073 49.0386H104.727C105.688 49.1475 105.924 49.4196 105.924 49.9094C105.924 50.3993 105.47 50.8347 104.581 50.8347C103.884 50.8267 103.21 50.5766 102.677 50.1272C102.665 50.1151 102.651 50.1055 102.635 50.0989C102.62 50.0924 102.603 50.089 102.586 50.089C102.569 50.089 102.552 50.0924 102.537 50.0989C102.521 50.1055 102.507 50.1151 102.495 50.1272L101.969 50.6895C101.957 50.7014 101.947 50.7155 101.941 50.7311C101.934 50.7466 101.931 50.7634 101.931 50.7803C101.931 50.7972 101.934 50.8139 101.941 50.8295C101.947 50.845 101.957 50.8591 101.969 50.871C102.665 51.487 103.561 51.8287 104.491 51.8325ZM110.586 51.8325C110.62 51.8325 110.652 51.8191 110.676 51.7953C110.7 51.7715 110.713 51.7392 110.713 51.7055V50.9617C110.713 50.928 110.7 50.8957 110.676 50.8719C110.652 50.8481 110.62 50.8347 110.586 50.8347H110.314C109.77 50.8347 109.534 50.6714 109.534 50.0546V46.4988H110.514C110.548 46.4988 110.58 46.4854 110.604 46.4616C110.627 46.4378 110.641 46.4055 110.641 46.3718V45.755C110.641 45.7213 110.627 45.689 110.604 45.6652C110.58 45.6413 110.548 45.628 110.514 45.628H109.534V43.8138C109.534 43.7801 109.521 43.7478 109.497 43.724C109.473 43.7002 109.441 43.6868 109.407 43.6868H108.591C108.557 43.6868 108.525 43.7002 108.501 43.724C108.477 43.7478 108.464 43.7801 108.464 43.8138V45.628H107.938C107.904 45.628 107.872 45.6413 107.848 45.6652C107.824 45.689 107.811 45.7213 107.811 45.755V46.3718C107.811 46.4055 107.824 46.4378 107.848 46.4616C107.872 46.4854 107.904 46.4988 107.938 46.4988H108.464V50.0183C108.464 51.2157 108.917 51.8325 110.115 51.8325H110.586ZM114.324 51.8325C114.852 51.8655 115.377 51.721 115.814 51.4219C116.251 51.1228 116.576 50.6863 116.736 50.1816C116.901 49.6785 116.975 49.1502 116.954 48.6214C116.973 48.0926 116.899 47.5646 116.736 47.0612C116.548 46.5714 116.216 46.1501 115.784 45.8529C115.352 45.5558 114.839 45.3967 114.315 45.3967C113.79 45.3967 113.278 45.5558 112.845 45.8529C112.413 46.1501 112.081 46.5714 111.893 47.0612C111.737 47.5659 111.669 48.0937 111.693 48.6214C111.668 49.1491 111.735 49.6772 111.893 50.1816C112.06 50.686 112.388 51.1213 112.828 51.4198C113.268 51.7183 113.793 51.8634 114.324 51.8325ZM114.324 50.8347C114.017 50.853 113.713 50.7683 113.46 50.5941C113.207 50.4199 113.019 50.1662 112.927 49.8732C112.758 49.0472 112.758 48.1955 112.927 47.3696C113.019 47.0766 113.207 46.8229 113.46 46.6487C113.713 46.4745 114.017 46.3898 114.324 46.4081C114.628 46.3907 114.929 46.4761 115.179 46.6504C115.429 46.8248 115.614 47.078 115.702 47.3696C115.897 48.1928 115.897 49.05 115.702 49.8732C115.614 50.1647 115.429 50.4179 115.179 50.5923C114.929 50.7666 114.628 50.852 114.324 50.8347ZM127.023 51.6874C127.04 51.6906 127.058 51.6896 127.075 51.6843C127.092 51.6791 127.107 51.6698 127.12 51.6573C127.132 51.6448 127.142 51.6295 127.147 51.6126C127.152 51.5957 127.153 51.5777 127.15 51.5604V47.7143C127.185 47.4125 127.154 47.1067 127.058 46.8186C126.961 46.5304 126.803 46.267 126.593 46.047C126.384 45.827 126.128 45.656 125.845 45.5459C125.562 45.4359 125.258 45.3895 124.955 45.4103C124.568 45.3916 124.183 45.4698 123.835 45.6377C123.486 45.8056 123.185 46.058 122.959 46.3718C122.779 46.0565 122.512 45.7988 122.191 45.6286C121.87 45.4585 121.507 45.3828 121.145 45.4103C120.796 45.3739 120.443 45.4322 120.124 45.5791C119.804 45.7259 119.531 45.9558 119.331 46.2448V45.6824C119.331 45.6641 119.327 45.6459 119.32 45.6292C119.312 45.6125 119.301 45.5976 119.287 45.5855C119.274 45.5734 119.257 45.5645 119.24 45.5593C119.222 45.5541 119.204 45.5528 119.186 45.5554H118.369C118.336 45.5554 118.303 45.5688 118.28 45.5926C118.256 45.6164 118.242 45.6487 118.242 45.6824V51.5604C118.239 51.5777 118.24 51.5957 118.245 51.6126C118.25 51.6295 118.26 51.6448 118.272 51.6573C118.285 51.6698 118.3 51.6791 118.317 51.6843C118.334 51.6896 118.352 51.6906 118.369 51.6874H119.186C119.186 51.6874 119.331 51.6874 119.331 51.5604V47.932C119.313 47.739 119.336 47.5444 119.398 47.3609C119.461 47.1774 119.561 47.0091 119.693 46.8671C119.825 46.725 119.985 46.6123 120.163 46.5363C120.342 46.4603 120.534 46.4228 120.728 46.4262C121.653 46.4262 122.107 47.0067 122.107 47.9864V51.6148C122.103 51.6322 122.104 51.6501 122.109 51.667C122.115 51.6839 122.124 51.6992 122.137 51.7117C122.149 51.7242 122.164 51.7335 122.181 51.7388C122.198 51.744 122.216 51.745 122.233 51.7418H123.05C123.067 51.745 123.085 51.744 123.102 51.7388C123.119 51.7335 123.134 51.7242 123.147 51.7117C123.159 51.6992 123.169 51.6839 123.174 51.667C123.179 51.6501 123.18 51.6322 123.177 51.6148V47.9864C123.162 47.7925 123.187 47.5975 123.252 47.414C123.316 47.2305 123.418 47.0625 123.552 46.9207C123.685 46.779 123.846 46.6666 124.025 46.5908C124.204 46.515 124.398 46.4775 124.592 46.4806C125.517 46.4806 125.953 47.0612 125.953 48.0408V51.6692C125.949 51.6866 125.95 51.7045 125.956 51.7214C125.961 51.7383 125.97 51.7537 125.983 51.7662C125.995 51.7787 126.01 51.7879 126.027 51.7932C126.044 51.7984 126.062 51.7994 126.08 51.7962L127.023 51.6874ZM131.449 53.9914C131.449 53.9914 131.595 53.9914 131.595 53.8644V50.9798C131.78 51.2845 132.051 51.5278 132.373 51.6795C132.696 51.8311 133.056 51.8843 133.409 51.8325C133.878 51.8714 134.346 51.7462 134.733 51.4782C135.121 51.2101 135.403 50.8159 135.531 50.363C135.822 49.2201 135.822 48.0227 135.531 46.8798C135.4 46.4286 135.117 46.0364 134.731 45.7689C134.344 45.5014 133.878 45.3748 133.409 45.4103C133.056 45.3584 132.696 45.4116 132.373 45.5633C132.051 45.7149 131.78 45.9583 131.595 46.2629V45.6824C131.595 45.6641 131.591 45.6459 131.584 45.6292C131.576 45.6125 131.565 45.5976 131.551 45.5855C131.538 45.5734 131.521 45.5645 131.504 45.5593C131.486 45.5541 131.468 45.5528 131.449 45.5554H130.633C130.6 45.5554 130.567 45.5688 130.544 45.5926C130.52 45.6164 130.506 45.6487 130.506 45.6824V53.9369C130.503 53.9543 130.504 53.9722 130.509 53.9891C130.514 54.006 130.524 54.0214 130.536 54.0339C130.549 54.0464 130.564 54.0557 130.581 54.0609C130.598 54.0661 130.616 54.0672 130.633 54.0639L131.449 53.9914ZM133.082 50.8347C132.785 50.8533 132.49 50.7725 132.244 50.6049C131.997 50.4374 131.814 50.1928 131.722 49.9094C131.553 49.0591 131.553 48.1837 131.722 47.3333C131.811 47.0482 131.994 46.8017 132.241 46.6337C132.488 46.4658 132.784 46.3862 133.082 46.4081C133.378 46.3838 133.674 46.4626 133.919 46.6312C134.163 46.7999 134.342 47.0479 134.425 47.3333C134.54 47.7525 134.589 48.1871 134.57 48.6214C134.59 49.0557 134.541 49.4904 134.425 49.9094C134.342 50.1949 134.163 50.4429 133.919 50.6115C133.674 50.7801 133.378 50.859 133.082 50.8347ZM139.341 51.8325C139.87 51.8655 140.394 51.721 140.832 51.4219C141.269 51.1228 141.593 50.6863 141.754 50.1816C141.919 49.6785 141.992 49.1502 141.972 48.6214C141.991 48.0926 141.917 47.5646 141.754 47.0612C141.599 46.553 141.276 46.1126 140.837 45.8126C140.399 45.5126 139.871 45.3707 139.341 45.4103C138.81 45.373 138.281 45.5155 137.84 45.815C137.399 46.1144 137.072 46.5533 136.91 47.0612C136.763 47.5678 136.696 48.0941 136.711 48.6214C136.695 49.1487 136.762 49.6753 136.91 50.1816C137.077 50.686 137.406 51.1213 137.845 51.4198C138.285 51.7183 138.811 51.8634 139.341 51.8325ZM139.341 50.8347C139.036 50.8553 138.733 50.7713 138.483 50.5964C138.232 50.4216 138.049 50.1664 137.963 49.8732C137.768 49.05 137.768 48.1928 137.963 47.3696C138.049 47.0763 138.232 46.8212 138.483 46.6463C138.733 46.4715 139.036 46.3874 139.341 46.4081C139.646 46.3907 139.947 46.4761 140.197 46.6504C140.447 46.8248 140.631 47.078 140.72 47.3696C140.915 48.1928 140.915 49.05 140.72 49.8732C140.631 50.1647 140.447 50.4179 140.197 50.5923C139.947 50.7666 139.646 50.852 139.341 50.8347ZM145.637 51.8325C146.165 51.8655 146.69 51.721 147.127 51.4219C147.564 51.1228 147.889 50.6863 148.049 50.1816C148.207 49.6772 148.274 49.1491 148.249 48.6214C148.273 48.0937 148.205 47.5659 148.049 47.0612C147.861 46.5714 147.529 46.1501 147.097 45.8529C146.664 45.5558 146.152 45.3967 145.627 45.3967C145.103 45.3967 144.59 45.5558 144.158 45.8529C143.726 46.1501 143.394 46.5714 143.206 47.0612C143.05 47.5659 142.982 48.0937 143.006 48.6214C142.981 49.1491 143.048 49.6772 143.206 50.1816C143.37 50.6877 143.698 51.1248 144.138 51.4237C144.578 51.7227 145.106 51.8665 145.637 51.8325ZM145.637 50.8347C145.33 50.853 145.026 50.7683 144.773 50.5941C144.52 50.4199 144.332 50.1662 144.24 49.8732C144.045 49.05 144.045 48.1928 144.24 47.3696C144.348 47.0893 144.538 46.8484 144.786 46.6785C145.034 46.5085 145.327 46.4176 145.627 46.4176C145.928 46.4176 146.221 46.5085 146.469 46.6785C146.717 46.8484 146.907 47.0893 147.015 47.3696C147.21 48.1928 147.21 49.05 147.015 49.8732C146.924 50.163 146.739 50.4144 146.489 50.5883C146.24 50.7622 145.94 50.8488 145.637 50.8347ZM151.569 51.7599C151.603 51.7599 151.635 51.7465 151.659 51.7227C151.682 51.6989 151.696 51.6666 151.696 51.6329V50.8891C151.696 50.8554 151.682 50.8231 151.659 50.7993C151.635 50.7755 151.603 50.7621 151.569 50.7621H151.333C150.898 50.7621 150.716 50.5988 150.716 50.0727V43.0518C150.716 43.0181 150.703 42.9858 150.679 42.962C150.655 42.9382 150.623 42.9248 150.589 42.9248H149.773C149.756 42.9216 149.738 42.9226 149.721 42.9278C149.704 42.9331 149.688 42.9424 149.676 42.9549C149.663 42.9674 149.654 42.9827 149.649 42.9996C149.644 43.0165 149.643 43.0344 149.646 43.0518V50.0909C149.646 51.1975 150.063 51.7055 151.134 51.7055L151.569 51.7599ZM154.998 51.7599C156.612 51.7599 157.483 50.9617 157.483 49.7462C157.483 48.5307 156.885 48.1315 155.669 47.932H155.034C154.127 47.932 153.819 47.5873 153.819 47.0975C153.819 46.6076 154.218 46.2629 154.998 46.2629C155.582 46.2764 156.152 46.4455 156.649 46.7528C156.674 46.7734 156.706 46.7846 156.739 46.7846C156.772 46.7846 156.804 46.7734 156.83 46.7528L157.266 46.2085C157.266 46.2085 157.266 46.0634 157.266 46.0271C156.633 45.569 155.869 45.3272 155.088 45.3377C153.637 45.3377 152.803 46.0452 152.803 47.1519C152.803 48.2585 153.437 48.7665 154.617 48.9661H155.27C156.231 49.0749 156.467 49.347 156.467 49.8369C156.467 50.3267 156.014 50.7621 155.125 50.7621C154.458 50.7337 153.82 50.4848 153.311 50.0546C153.3 50.043 153.288 50.0337 153.274 50.0274C153.26 50.021 153.244 50.0177 153.229 50.0177C153.213 50.0177 153.198 50.021 153.184 50.0274C153.17 50.0337 153.158 50.043 153.147 50.0546L152.621 50.617C152.609 50.6288 152.6 50.6429 152.593 50.6585C152.586 50.6741 152.583 50.6908 152.583 50.7077C152.583 50.7246 152.586 50.7413 152.593 50.7569C152.6 50.7725 152.609 50.7866 152.621 50.7984C153.266 51.4129 154.108 51.7792 154.998 51.8325V51.7599ZM160.44 49.474C160.419 49.7798 160.463 50.0866 160.57 50.3737C160.678 50.6608 160.845 50.9215 161.062 51.1382C161.279 51.3549 161.539 51.5226 161.826 51.6298C162.114 51.7371 162.42 51.7815 162.726 51.7599C163.183 51.7538 163.632 51.6445 164.04 51.4403C164.449 51.2361 164.806 50.9423 165.085 50.5807L165.429 51.0161C165.54 51.2131 165.705 51.3743 165.904 51.4804C166.103 51.5866 166.329 51.6332 166.554 51.6148H166.899C166.916 51.618 166.934 51.617 166.951 51.6118C166.968 51.6065 166.983 51.5973 166.996 51.5847C167.008 51.5722 167.018 51.5569 167.023 51.54C167.028 51.5231 167.029 51.5052 167.026 51.4878V50.7803C167.026 50.7466 167.012 50.7143 166.989 50.6905C166.965 50.6666 166.932 50.6533 166.899 50.6533H166.699C166.596 50.6457 166.497 50.6138 166.408 50.5602C166.32 50.5066 166.245 50.4328 166.191 50.3448L165.774 49.7825L166.772 48.5125C166.772 48.5125 166.772 48.3855 166.772 48.3311L166.282 47.8957C166.27 47.8836 166.256 47.874 166.24 47.8675C166.225 47.861 166.208 47.8576 166.191 47.8576C166.174 47.8576 166.158 47.861 166.142 47.8675C166.126 47.874 166.112 47.8836 166.101 47.8957L165.212 48.9842L163.561 46.8616C164.722 45.9182 165.121 45.374 165.121 44.5939C165.073 44.0951 164.842 43.632 164.471 43.2949C164.1 42.9578 163.617 42.7711 163.116 42.7711C162.615 42.7711 162.132 42.9578 161.761 43.2949C161.391 43.632 161.159 44.0951 161.112 44.5939C161.112 45.2288 161.438 45.7187 162.2 46.7165C160.876 47.805 160.35 48.5851 160.35 49.5466L160.44 49.474ZM161.456 49.474C161.456 48.8391 161.837 48.2767 162.744 47.6599L164.558 49.9639C164.373 50.2486 164.124 50.4867 163.831 50.6597C163.539 50.8328 163.21 50.9361 162.871 50.9617C162.667 51.0083 162.455 51.0031 162.253 50.9464C162.052 50.8897 161.868 50.7834 161.718 50.6373C161.568 50.4911 161.457 50.3097 161.396 50.1096C161.334 49.9096 161.324 49.6973 161.365 49.4922L161.456 49.474ZM162.962 46.1722C162.309 45.3377 162.109 45.0474 162.109 44.6846C162.101 44.5563 162.121 44.4277 162.166 44.3074C162.212 44.1872 162.282 44.0779 162.373 43.987C162.464 43.8961 162.573 43.8255 162.694 43.78C162.814 43.7345 162.943 43.7151 163.071 43.7231C163.199 43.7157 163.328 43.7346 163.449 43.7786C163.569 43.8227 163.68 43.891 163.773 43.9794C163.867 44.0677 163.941 44.1742 163.992 44.2924C164.043 44.4106 164.069 44.5378 164.069 44.6664C163.978 45.1018 163.851 45.4466 162.835 46.1904L162.962 46.1722ZM169.656 48.6032C169.638 49.1307 169.705 49.6576 169.856 50.1634C170.014 50.6699 170.338 51.1083 170.776 51.4079C171.213 51.7074 171.739 51.8506 172.269 51.8143C172.678 51.8317 173.085 51.7462 173.453 51.5655C173.82 51.3849 174.137 51.1149 174.373 50.7803C174.373 50.7803 174.373 50.6714 174.373 50.5988L173.811 50.1453C173.799 50.1332 173.785 50.1236 173.769 50.1171C173.754 50.1105 173.737 50.1072 173.72 50.1072C173.703 50.1072 173.687 50.1105 173.671 50.1171C173.655 50.1236 173.641 50.1332 173.629 50.1453C173.485 50.3621 173.288 50.5379 173.056 50.6555C172.824 50.7731 172.565 50.8286 172.305 50.8165C172.002 50.8363 171.702 50.7516 171.455 50.5765C171.207 50.4015 171.027 50.1468 170.944 49.855C170.75 49.0318 170.75 48.1746 170.944 47.3514C171.027 47.0596 171.207 46.8049 171.455 46.6299C171.702 46.4549 172.002 46.3702 172.305 46.3899C172.565 46.3778 172.824 46.4333 173.056 46.551C173.288 46.6686 173.485 46.8444 173.629 47.0612C173.639 47.0761 173.653 47.0884 173.669 47.0969C173.685 47.1054 173.702 47.1099 173.72 47.1099C173.738 47.1099 173.756 47.1054 173.772 47.0969C173.787 47.0884 173.801 47.0761 173.811 47.0612L174.373 46.5895C174.385 46.5777 174.395 46.5635 174.401 46.548C174.408 46.5324 174.411 46.5157 174.411 46.4988C174.411 46.4819 174.408 46.4651 174.401 46.4496C174.395 46.434 174.385 46.4199 174.373 46.4081C174.137 46.0735 173.82 45.8035 173.453 45.6228C173.085 45.4422 172.678 45.3566 172.269 45.374C171.74 45.3409 171.216 45.4854 170.779 45.7845C170.341 46.0836 170.017 46.5202 169.856 47.0249C169.672 47.5374 169.574 48.0768 169.566 48.6214L169.656 48.6032ZM177.857 51.8143C178.387 51.8452 178.913 51.7002 179.352 51.4016C179.792 51.1031 180.121 50.6679 180.287 50.1634C180.445 49.659 180.512 49.131 180.487 48.6032C180.511 48.0756 180.443 47.5477 180.287 47.043C180.099 46.5532 179.767 46.132 179.335 45.8348C178.903 45.5376 178.39 45.3785 177.866 45.3785C177.341 45.3785 176.829 45.5376 176.396 45.8348C175.964 46.132 175.632 46.5532 175.444 47.043C175.288 47.5477 175.22 48.0756 175.244 48.6032C175.219 49.131 175.286 49.659 175.444 50.1634C175.597 50.656 175.907 51.0852 176.326 51.3863C176.745 51.6874 177.25 51.844 177.766 51.8325L177.857 51.8143ZM177.857 50.8165C177.552 50.8339 177.251 50.7485 177.001 50.5742C176.751 50.3998 176.567 50.1466 176.478 49.855C176.283 49.0318 176.283 48.1746 176.478 47.3514C176.567 47.0599 176.751 46.8067 177.001 46.6323C177.251 46.458 177.552 46.3726 177.857 46.3899C178.163 46.3716 178.467 46.4563 178.72 46.6305C178.973 46.8047 179.161 47.0584 179.253 47.3514C179.423 48.1774 179.423 49.0291 179.253 49.855C179.161 50.1679 178.961 50.438 178.689 50.6173C178.417 50.7967 178.09 50.8737 177.766 50.8347L177.857 50.8165ZM186.71 51.6692C186.727 51.6725 186.745 51.6714 186.762 51.6662C186.779 51.661 186.794 51.6517 186.807 51.6392C186.819 51.6267 186.829 51.6113 186.834 51.5944C186.839 51.5775 186.84 51.5596 186.837 51.5422V47.6961C186.871 47.3992 186.841 47.0983 186.747 46.8143C186.654 46.5302 186.501 46.2697 186.297 46.0507C186.094 45.8318 185.845 45.6595 185.569 45.5458C185.292 45.4321 184.995 45.3797 184.696 45.3921C184.364 45.3718 184.032 45.438 183.733 45.5843C183.434 45.7305 183.178 45.9519 182.991 46.2266V45.6643C182.991 45.6306 182.977 45.5983 182.953 45.5745C182.93 45.5506 182.897 45.5373 182.864 45.5373H182.047C182.014 45.5373 181.981 45.5506 181.958 45.5745C181.934 45.5983 181.92 45.6306 181.92 45.6643V51.5422C181.917 51.5596 181.918 51.5775 181.923 51.5944C181.928 51.6113 181.938 51.6267 181.95 51.6392C181.963 51.6517 181.978 51.661 181.995 51.6662C182.012 51.6714 182.03 51.6725 182.047 51.6692H182.864C182.881 51.6725 182.899 51.6714 182.916 51.6662C182.933 51.661 182.948 51.6517 182.961 51.6392C182.973 51.6267 182.982 51.6113 182.988 51.5944C182.993 51.5775 182.994 51.5596 182.991 51.5422V47.9138C182.973 47.7193 182.996 47.5231 183.059 47.3383C183.123 47.1536 183.225 46.9844 183.359 46.842C183.492 46.6996 183.655 46.5873 183.836 46.5125C184.016 46.4377 184.21 46.4021 184.406 46.4081C185.331 46.4081 185.766 46.9886 185.766 47.9683V51.5966C185.763 51.614 185.764 51.6319 185.769 51.6488C185.775 51.6657 185.784 51.6811 185.796 51.6936C185.809 51.7061 185.824 51.7154 185.841 51.7206C185.858 51.7258 185.876 51.7269 185.893 51.7236L186.71 51.6692ZM190.665 51.8143C192.261 51.8143 193.132 51.0161 193.132 49.8006C193.132 48.5851 192.533 48.186 191.318 47.9864H190.683C189.776 47.9864 189.485 47.6417 189.485 47.1519C189.485 46.6621 189.866 46.3174 190.646 46.3174C191.231 46.3282 191.802 46.4975 192.297 46.8072C192.323 46.8278 192.355 46.839 192.388 46.839C192.421 46.839 192.453 46.8278 192.479 46.8072L192.914 46.2629C192.914 46.2629 192.914 46.1178 192.914 46.0815C192.282 45.6234 191.518 45.3816 190.737 45.3921C189.304 45.3921 188.469 46.0997 188.469 47.2063C188.469 48.313 189.086 48.8209 190.284 49.0205H190.937C191.898 49.1293 192.116 49.4015 192.116 49.8913C192.116 50.3811 191.681 50.8165 190.774 50.8165C190.106 50.7952 189.465 50.5454 188.959 50.109C188.948 50.0969 188.933 50.0874 188.918 50.0808C188.902 50.0743 188.885 50.0709 188.869 50.0709C188.852 50.0709 188.835 50.0743 188.819 50.0808C188.804 50.0874 188.79 50.0969 188.778 50.109L188.252 50.6714C188.24 50.6832 188.23 50.6973 188.224 50.7129C188.217 50.7285 188.214 50.7452 188.214 50.7621C188.214 50.779 188.217 50.7957 188.224 50.8113C188.23 50.8269 188.24 50.841 188.252 50.8528C188.891 51.4346 189.711 51.7803 190.574 51.8325L190.665 51.8143ZM196.76 51.8143C196.794 51.8143 196.826 51.801 196.85 51.7771C196.874 51.7533 196.887 51.721 196.887 51.6874V50.9435C196.887 50.9098 196.874 50.8775 196.85 50.8537C196.826 50.8299 196.794 50.8165 196.76 50.8165H196.488C195.944 50.8165 195.708 50.6533 195.708 50.0364V46.4988H196.688C196.721 46.4988 196.754 46.4854 196.777 46.4616C196.801 46.4378 196.815 46.4055 196.815 46.3718V45.755C196.815 45.7213 196.801 45.689 196.777 45.6652C196.754 45.6413 196.721 45.628 196.688 45.628H195.708V43.8138C195.708 43.7801 195.695 43.7478 195.671 43.724C195.647 43.7002 195.615 43.6868 195.581 43.6868H194.765C194.747 43.6835 194.73 43.6846 194.713 43.6898C194.696 43.695 194.68 43.7043 194.668 43.7168C194.655 43.7293 194.646 43.7447 194.641 43.7616C194.635 43.7785 194.635 43.7964 194.638 43.8138V45.628H194.13C194.096 45.628 194.064 45.6413 194.04 45.6652C194.016 45.689 194.003 45.7213 194.003 45.755V46.3718C194.003 46.4055 194.016 46.4378 194.04 46.4616C194.064 46.4854 194.096 46.4988 194.13 46.4988H194.638V50.0183C194.638 51.2157 195.091 51.8325 196.289 51.8325L196.76 51.8143ZM199.173 51.8143C199.173 51.8143 199.3 51.8143 199.3 51.6874V48.3311C199.3 47.2789 199.699 46.5169 200.624 46.5169C200.963 46.5217 201.292 46.6292 201.568 46.8253C201.58 46.8374 201.594 46.847 201.609 46.8535C201.625 46.8601 201.642 46.8634 201.659 46.8634C201.676 46.8634 201.692 46.8601 201.708 46.8535C201.723 46.847 201.737 46.8374 201.749 46.8253L202.221 46.2085C202.221 46.2085 202.221 46.0815 202.221 46.0271C201.879 45.7161 201.431 45.5474 200.969 45.5554C200.64 45.5443 200.315 45.6229 200.027 45.7827C199.74 45.9425 199.501 46.1774 199.336 46.4625V45.8275C199.34 45.8101 199.339 45.7922 199.333 45.7753C199.328 45.7584 199.319 45.7431 199.306 45.7306C199.294 45.7181 199.278 45.7088 199.262 45.7035C199.245 45.6983 199.227 45.6973 199.21 45.7005H198.393C198.359 45.7005 198.327 45.7139 198.303 45.7377C198.28 45.7615 198.266 45.7938 198.266 45.8275V51.7055C198.263 51.7229 198.264 51.7408 198.269 51.7577C198.274 51.7746 198.284 51.79 198.296 51.8025C198.309 51.815 198.324 51.8242 198.341 51.8295C198.358 51.8347 198.376 51.8357 198.393 51.8325L199.173 51.8143ZM207.845 51.8143C207.862 51.8176 207.88 51.8166 207.897 51.8113C207.914 51.8061 207.929 51.7968 207.942 51.7843C207.954 51.7718 207.964 51.7564 207.969 51.7395C207.974 51.7227 207.975 51.7047 207.972 51.6874V45.8094C207.972 45.7757 207.959 45.7434 207.935 45.7196C207.911 45.6958 207.879 45.6824 207.845 45.6824H207.029C207.01 45.6798 206.992 45.6811 206.974 45.6863C206.957 45.6915 206.941 45.7004 206.927 45.7125C206.913 45.7246 206.902 45.7395 206.895 45.7562C206.887 45.7729 206.883 45.7911 206.884 45.8094V49.4378C206.907 49.6304 206.889 49.8258 206.83 50.0107C206.771 50.1955 206.672 50.3653 206.541 50.5084C206.41 50.6516 206.249 50.7646 206.071 50.8397C205.892 50.9148 205.699 50.9502 205.505 50.9435C204.598 50.9435 204.144 50.363 204.144 49.3652V45.7368C204.144 45.7031 204.131 45.6708 204.107 45.647C204.083 45.6232 204.051 45.6098 204.017 45.6098H203.201C203.167 45.6098 203.135 45.6232 203.111 45.647C203.087 45.6708 203.074 45.7031 203.074 45.7368V49.5647C203.037 49.8615 203.065 50.1628 203.155 50.4477C203.246 50.7327 203.398 50.9945 203.6 51.2153C203.801 51.436 204.048 51.6104 204.324 51.7263C204.6 51.8423 204.897 51.8971 205.196 51.8869C205.529 51.9136 205.862 51.8481 206.16 51.6977C206.457 51.5473 206.708 51.3177 206.884 51.0342V51.6148C206.884 51.6148 206.883 51.7418 207.029 51.7418L207.845 51.8143ZM209.369 48.7484C209.36 49.2754 209.427 49.8009 209.568 50.3086C209.726 50.815 210.05 51.2534 210.488 51.553C210.926 51.8526 211.452 51.9958 211.981 51.9595C212.391 51.9769 212.798 51.8913 213.165 51.7106C213.533 51.53 213.849 51.26 214.086 50.9254C214.086 50.9254 214.086 50.8165 214.086 50.744L213.523 50.2904C213.511 50.2784 213.497 50.2688 213.482 50.2622C213.466 50.2557 213.45 50.2523 213.433 50.2523C213.416 50.2523 213.399 50.2557 213.384 50.2622C213.368 50.2688 213.354 50.2784 213.342 50.2904C213.199 50.5085 213.002 50.6853 212.769 50.8031C212.537 50.9209 212.278 50.9756 212.018 50.9617C211.715 50.9814 211.415 50.8967 211.167 50.7217C210.92 50.5467 210.739 50.292 210.657 50.0002C210.462 49.177 210.462 48.3198 210.657 47.4966C210.739 47.2047 210.92 46.9501 211.167 46.775C211.415 46.6 211.715 46.5153 212.018 46.5351C212.278 46.5212 212.537 46.5758 212.769 46.6936C213.002 46.8115 213.199 46.9882 213.342 47.2063C213.352 47.2213 213.365 47.2336 213.381 47.242C213.397 47.2505 213.415 47.255 213.433 47.255C213.451 47.255 213.468 47.2505 213.484 47.242C213.5 47.2336 213.513 47.2213 213.523 47.2063L214.086 46.7346C214.098 46.7228 214.107 46.7087 214.114 46.6931C214.12 46.6775 214.124 46.6608 214.124 46.6439C214.124 46.627 214.12 46.6103 214.114 46.5947C214.107 46.5791 214.098 46.565 214.086 46.5532C213.849 46.2186 213.533 45.9486 213.165 45.768C212.798 45.5873 212.391 45.5017 211.981 45.5191C211.453 45.4861 210.928 45.6306 210.491 45.9297C210.054 46.2288 209.729 46.6653 209.568 47.17C209.406 47.6383 209.308 48.1266 209.278 48.6214L209.369 48.7484ZM217.732 51.8869C217.766 51.8869 217.798 51.8735 217.822 51.8497C217.846 51.8259 217.859 51.7936 217.859 51.7599V51.0161C217.859 50.9824 217.846 50.9501 217.822 50.9263C217.798 50.9025 217.766 50.8891 217.732 50.8891H217.46C216.916 50.8891 216.68 50.7258 216.68 50.109V46.4988H217.66C217.693 46.4988 217.726 46.4854 217.75 46.4616C217.773 46.4378 217.787 46.4055 217.787 46.3718V45.755C217.787 45.7213 217.773 45.689 217.75 45.6652C217.726 45.6413 217.693 45.628 217.66 45.628H216.68V43.8138C216.68 43.7801 216.667 43.7478 216.643 43.724C216.619 43.7002 216.587 43.6868 216.553 43.6868H215.737C215.719 43.6835 215.701 43.6846 215.684 43.6898C215.668 43.695 215.652 43.7043 215.64 43.7168C215.627 43.7293 215.618 43.7447 215.613 43.7616C215.608 43.7785 215.606 43.7964 215.61 43.8138V45.628H215.102C215.068 45.628 215.036 45.6413 215.012 45.6652C214.988 45.689 214.975 45.7213 214.975 45.755V46.3718C214.975 46.4055 214.988 46.4378 215.012 46.4616C215.036 46.4854 215.068 46.4988 215.102 46.4988H215.61V50.0183C215.61 51.2157 216.063 51.8325 217.261 51.8325L217.732 51.8869ZM220.181 44.3036C220.215 44.3036 220.248 44.2902 220.271 44.2664C220.295 44.2426 220.309 44.2103 220.309 44.1766V43.0518C220.309 43.0181 220.295 42.9858 220.271 42.962C220.248 42.9382 220.215 42.9248 220.181 42.9248H219.311C219.293 42.9222 219.274 42.9235 219.256 42.9287C219.239 42.9339 219.223 42.9429 219.209 42.9549C219.195 42.967 219.184 42.9819 219.177 42.9986C219.169 43.0154 219.165 43.0335 219.166 43.0518V43.9952C219.165 44.0135 219.169 44.0317 219.177 44.0484C219.184 44.0651 219.195 44.08 219.209 44.0921C219.223 44.1041 219.239 44.1131 219.256 44.1183C219.274 44.1235 219.293 44.1248 219.311 44.1222L220.181 44.3036ZM220.181 51.8143C220.199 51.8176 220.217 51.8166 220.234 51.8113C220.251 51.8061 220.266 51.7968 220.278 51.7843C220.291 51.7718 220.3 51.7564 220.305 51.7395C220.311 51.7227 220.312 51.7047 220.309 51.6874V45.8094C220.309 45.7757 220.295 45.7434 220.271 45.7196C220.248 45.6958 220.215 45.6824 220.181 45.6824H219.365C219.331 45.6824 219.299 45.6958 219.275 45.7196C219.251 45.7434 219.238 45.7757 219.238 45.8094V51.6874C219.235 51.7047 219.236 51.7227 219.241 51.7395C219.246 51.7564 219.256 51.7718 219.268 51.7843C219.281 51.7968 219.296 51.8061 219.313 51.8113C219.33 51.8166 219.348 51.8176 219.365 51.8143H220.181ZM224.354 51.9595C224.883 51.9925 225.407 51.848 225.844 51.5489C226.281 51.2498 226.606 50.8133 226.767 50.3086C226.931 49.8055 227.005 49.2772 226.985 48.7484C227.004 48.2196 226.93 47.6916 226.767 47.1882C226.579 46.6984 226.247 46.2771 225.814 45.9799C225.382 45.6828 224.87 45.5237 224.345 45.5237C223.82 45.5237 223.308 45.6828 222.876 45.9799C222.443 46.2771 222.111 46.6984 221.923 47.1882C221.767 47.6929 221.7 48.2207 221.723 48.7484C221.698 49.2761 221.766 49.8042 221.923 50.3086C222.105 50.7679 222.423 51.1603 222.835 51.4329C223.247 51.7054 223.733 51.8449 224.227 51.8325L224.354 51.9595ZM224.354 50.9617C224.047 50.98 223.743 50.8953 223.49 50.7211C223.237 50.5469 223.05 50.2932 222.957 50.0002C222.788 49.1742 222.788 48.3225 222.957 47.4966C223.05 47.2036 223.237 46.9499 223.49 46.7757C223.743 46.6015 224.047 46.5168 224.354 46.5351C224.658 46.5177 224.96 46.6031 225.21 46.7774C225.46 46.9518 225.644 47.205 225.733 47.4966C225.928 48.3198 225.928 49.177 225.733 50.0002C225.617 50.2915 225.403 50.5338 225.129 50.6858C224.854 50.8379 224.536 50.8905 224.227 50.8347L224.354 50.9617ZM233.189 51.8143C233.207 51.8176 233.224 51.8166 233.241 51.8113C233.258 51.8061 233.274 51.7968 233.286 51.7843C233.299 51.7718 233.308 51.7564 233.313 51.7395C233.318 51.7227 233.319 51.7047 233.316 51.6874V47.8413C233.35 47.5459 233.32 47.2467 233.228 46.9639C233.136 46.6812 232.984 46.4217 232.783 46.203C232.581 45.9843 232.335 45.8117 232.061 45.6968C231.786 45.5819 231.491 45.5275 231.194 45.5373C230.859 45.5173 230.525 45.5835 230.223 45.7296C229.921 45.8757 229.662 46.0968 229.47 46.3718V45.8094C229.473 45.792 229.472 45.7741 229.467 45.7572C229.462 45.7403 229.453 45.7249 229.44 45.7124C229.428 45.6999 229.412 45.6906 229.395 45.6854C229.378 45.6802 229.361 45.6791 229.343 45.6824H228.527C228.493 45.6824 228.461 45.6958 228.437 45.7196C228.413 45.7434 228.4 45.7757 228.4 45.8094V51.6874C228.396 51.7047 228.398 51.7227 228.403 51.7395C228.408 51.7564 228.417 51.7718 228.43 51.7843C228.442 51.7968 228.458 51.8061 228.475 51.8113C228.492 51.8166 228.509 51.8176 228.527 51.8143H229.343C229.434 51.8143 229.47 51.8143 229.47 51.6874V48.059C229.452 47.8644 229.475 47.6683 229.539 47.4835C229.602 47.2987 229.704 47.1295 229.838 46.9871C229.972 46.8447 230.135 46.7324 230.315 46.6576C230.496 46.5828 230.69 46.5472 230.885 46.5532C231.81 46.5532 232.264 47.1337 232.264 48.1134V51.7418C232.261 51.7592 232.262 51.7771 232.267 51.794C232.272 51.8109 232.281 51.8262 232.294 51.8387C232.306 51.8512 232.322 51.8605 232.339 51.8658C232.356 51.871 232.373 51.872 232.391 51.8688L233.189 51.8143Z" fill="white"/>
</svg>
